<svg version="1.1" xmlns="http://www.w3.org/2000/svg" x="0px" y="0px" viewBox="0 0 1000 1000">
	<style type="text/css">
		.st1{fill:none;stroke:#ccc;stroke-width:2;stroke-miterlimit:10;stroke-dasharray:20,20;}
		.st2{fill:none;stroke:#231F20;stroke-width:30;stroke-linecap:round;stroke-linejoin:round;stroke-miterlimit:10;}
		.st3{fill:none;stroke:#2ED7B8;stroke-width:30;stroke-linecap:round;stroke-linejoin:round;stroke-miterlimit:10;}
		.draw_0{stroke-dasharray:779 781;stroke-dashoffset:780;animation:draw 800ms linear 0ms forwards;}
		.draw_1{stroke-dasharray:824 826;stroke-dashoffset:825;animation:draw 800ms linear 100ms forwards;}
		.draw_2{stroke-dasharray:740 742;stroke-dashoffset:741;animation:draw 800ms linear 200ms forwards;}
		.draw_3{stroke-dasharray:808 810;stroke-dashoffset:809;animation:draw 800ms linear 300ms forwards;}
		.draw_4{stroke-dasharray:708 710;stroke-dashoffset:709;animation:draw 800ms linear 400ms forwards;}
		.draw_5{stroke-dasharray:795 797;stroke-dashoffset:796;animation:draw 800ms linear 500ms forwards;}
		.draw_6{stroke-dasharray:1087 1089;stroke-dashoffset:1088;animation:draw 800ms linear 600ms forwards;}
		.draw_7{stroke-dasharray:879 880;stroke-dashoffset:881;animation:draw 800ms linear 700ms forwards;}
		.draw_8{stroke-dasharray:1886 1888;stroke-dashoffset:1887;animation:draw 800ms linear 800ms forwards;}
		.draw_9{stroke-dasharray:2336 2338;stroke-dashoffset:2337;animation:draw 2000ms linear 1000ms forwards;}
		.draw_10{stroke-dasharray:1446 1448;stroke-dashoffset:1447;animation:draw 2000ms linear 1000ms forwards;}
		@keyframes draw{100%{stroke-dashoffset:0;}}
	</style>
	<g id="help_lines">
		<line class="st1 draw_0" x2="200" y2="79.8" x1="200" y1="857.99"/>
		<line class="st1 draw_1" x1="350" y1="97.86" x2="350" y2="921.71"/>
		<line class="st1 draw_2" x2="650" y2="147.42" x1="650" y1="887.3"/>
		<line class="st1 draw_3" x1="800" y1="113.71" x2="800" y2="921.01"/>
		<line class="st1 draw_4" x1="854.45" y1="200" x2="147.15" y2="200"/>
		<line class="st1 draw_5" x2="878.47" y2="800" x1="84.12" y1="800"/>
		<line class="st1 draw_6" x2="114.7" y2="113.71" x1="882.93" y1="881.95"/>
		<line class="st1 draw_7" x1="65.3" y1="216.38" x2="686.57" y2="837.65"/>
		<circle class="st1 draw_8" cx="350" cy="500" r="300"/>
	</g>
	<g id="logo">
		<path class="st2 draw_9" d="M199,197.43,349,200s300,0,300,300c0,39.54-5.67,69.32-7.74,78.28,0,0-13.89,60-48.34,108.05C518.61,790,360.45,799.46,349,800H199V350L649,797.43"/>
		<polyline class="st3 draw_10" points="199 197.44 799 797.43 799 200"/>
	</g>
</svg>
